 <svg  version="1.0" xmlns="http://www.w3.org/2000/svg"  width="211.000000pt" height="148.000000pt" viewBox="0 0 211.000000 148.000000"  preserveAspectRatio="xMidYMid meet">  <g transform="translate(0.000000,148.000000) scale(0.100000,-0.100000)" fill="#c9c5c5" stroke="none"> <path d="M932 1120 c-43 -18 -111 -70 -128 -99 -14 -24 -26 -30 -68 -35 -28 -4 -73 -14 -101 -23 -57 -18 -262 -127 -303 -160 l-27 -23 30 -25 30 -26 -30 3 c-22 2 -30 -2 -33 -15 -5 -25 14 -45 51 -53 18 -3 92 -26 166 -50 74 -24 158 -49 187 -55 51 -11 54 -14 68 -57 9 -25 28 -60 42 -79 42 -55 126 -98 110 -56 -4 9 1 41 9 71 9 30 14 64 11 76 -5 19 0 21 59 24 35 1 106 13 157 26 l93 24 38 -35 c34 -31 75 -53 97 -53 4 0 11 11 14 25 3 13 24 39 46 56 26 21 40 40 40 56 0 13 -5 23 -11 23 -27 0 5 18 40 23 53 7 109 -7 188 -45 43 -20 84 -32 126 -35 91 -6 99 5 49 65 -47 56 -66 97 -58 128 3 12 22 50 41 84 49 87 48 93 -23 88 -60 -4 -108 -24 -197 -83 -49 -33 -76 -40 -144 -37 -32 2 -33 3 -18 20 10 10 17 23 17 29 0 18 -44 51 -104 79 -69 31 -117 29 -176 -10 -45 -30 -80 -26 -80 10 0 23 -31 64 -49 64 -5 0 -11 7 -15 15 -3 8 -12 15 -20 15 -7 0 -16 7 -20 15 -3 8 -15 15 -26 15 -11 0 -20 7 -20 15 0 17 -23 18 -58 5z m42 -35 c3 -8 13 -15 22 -15 19 0 124 -76 124 -90 0 -5 -4 -11 -9 -14 -11 -7 -42 4 -37 13 2 3 -21 6 -52 5 l-55 -1 29 25 c29 24 28 24 -18 -2 -50 -28 -68 -19 -23 10 14 9 24 19 21 21 -2 2 -25 -10 -52 -26 -26 -17 -50 -29 -53 -26 -2 3 11 22 30 42 l34 37 -51 -37 c-29 -20 -58 -37 -65 -37 -19 0 50 68 91 90 43 23 56 24 64 5z m434 -141 c30 -15 56 -33 59 -40 9 -24 -14 -41 -48 -36 -22 3 -27 7 -18 13 10 6 2 9 -21 9 l-35 1 30 15 c17 8 22 12 13 10 -40 -11 -88 -18 -88 -12 0 3 15 13 33 21 17 8 23 13 12 9 -11 -3 -36 -8 -55 -10 l-35 -5 25 16 c15 10 18 14 7 11 -48 -15 -67 -17 -67 -8 0 16 73 41 105 36 17 -2 54 -16 83 -30z m-323 -9 c44 -9 141 -36 215 -60 172 -55 229 -67 269 -55 26 7 36 5 52 -11 23 -23 24 -47 3 -77 -13 -18 -25 -22 -73 -22 -64 0 -80 -4 -226 -61 -218 -84 -419 -106 -607 -65 -91 20 -106 29 -63 40 13 3 36 21 51 40 l27 33 56 -28 c87 -45 109 -39 204 50 59 55 52 65 -43 57 -44 -3 -108 -15 -142 -26 -35 -11 -64 -20 -65 -20 -2 0 -3 22 -3 48 0 51 -16 75 -68 102 -38 19 -36 4 3 -20 46 -29 57 -50 49 -102 -9 -56 -77 -128 -120 -128 -16 0 -81 14 -144 31 -63 17 -121 33 -127 35 -7 2 -13 8 -13 13 0 18 103 0 128 -22 18 -17 22 -18 22 -5 0 18 -47 61 -93 85 -30 15 -30 16 -11 30 39 30 280 144 324 153 65 13 301 4 395 -15z m751 -59 c-21 -38 -36 -78 -36 -98 0 -36 26 -86 68 -130 l26 -28 -36 0 c-52 0 -218 63 -218 82 0 12 13 10 35 -6 24 -16 131 -56 148 -56 7 1 -16 12 -50 25 -119 46 -140 68 -34 34 35 -10 66 -17 68 -15 3 2 -27 15 -66 27 -39 13 -71 27 -71 32 0 5 6 7 14 4 7 -3 35 -8 62 -11 46 -5 45 -4 -16 11 l-65 17 60 13 60 12 -57 -3 c-31 -1 -55 0 -53 4 2 4 30 15 60 25 31 9 54 19 51 22 -2 3 -28 -3 -56 -12 -59 -20 -90 -14 -69 12 12 14 11 15 -9 9 -34 -11 -27 -2 31 36 72 48 177 85 185 66 2 -5 -12 -37 -32 -72z m-901 -156 c-13 -21 -65 -40 -90 -34 -51 13 -10 41 63 43 20 1 31 -3 27 -9z m531 -72 c5 -7 -7 -24 -28 -42 -19 -17 -40 -41 -47 -53 -16 -31 -31 -29 -77 13 -21 19 -31 33 -21 30 9 -3 17 -1 17 4 0 5 13 5 32 -1 48 -13 59 -10 18 6 -27 10 -30 14 -13 14 12 1 25 6 28 11 3 6 17 10 31 10 14 0 22 4 19 10 -3 6 3 10 14 10 11 0 23 -5 27 -12z m-652 -150 c14 -24 26 -38 26 -33 0 6 -7 21 -16 33 -8 12 -14 27 -12 33 2 6 17 -7 32 -30 16 -23 31 -39 34 -37 2 3 -5 18 -17 34 -31 44 -26 48 17 16 l37 -27 -24 26 c-28 30 -15 36 19 9 22 -18 22 -19 6 -65 -9 -26 -16 -55 -16 -65 -1 -24 -92 75 -107 116 -15 43 -9 40 21 -10z"/> <path d="M860 865 c142 -14 211 -26 435 -79 61 -14 135 -25 165 -25 52 1 50 2 -35 15 -49 8 -112 20 -140 28 -160 46 -294 68 -430 72 l-140 3 145 -14z"/> <path d="M470 831 c-5 -11 -10 -24 -10 -30 0 -17 46 -42 64 -35 22 8 31 50 16 69 -18 21 -57 19 -70 -4z m63 -5 c8 -21 -16 -48 -36 -40 -17 6 -23 35 -10 47 11 12 41 7 46 -7z"/> <path d="M630 846 c0 -4 9 -19 20 -33 40 -51 16 -114 -56 -148 -44 -21 -40 -28 9 -14 62 17 100 84 77 138 -11 29 -50 72 -50 57z"/> <path d="M1800 933 c-8 -3 -41 -21 -73 -41 -38 -22 -55 -37 -47 -42 9 -6 7 -11 -6 -19 -38 -21 -5 -10 67 23 79 37 82 49 3 16 -26 -11 -49 -19 -51 -16 -5 5 52 40 108 65 39 18 38 28 -1 14z"/> </g> </svg> 