<?xml version="1.0" standalone="no"?>
<!DOCTYPE svg PUBLIC "-//W3C//DTD SVG 20010904//EN"
 "http://www.w3.org/TR/2001/REC-SVG-20010904/DTD/svg10.dtd">
<svg version="1.0" xmlns="http://www.w3.org/2000/svg"
 width="276.000000pt" height="183.000000pt" viewBox="0 0 276.000000 183.000000"
 preserveAspectRatio="xMidYMid meet">
<metadata>
Created by potrace 1.10, written by Peter Selinger 2001-2011
</metadata>
<g transform="translate(0.000000,183.000000) scale(0.100000,-0.100000)"
fill="#000000" stroke="none">
<path d="M820 1417 c0 -8 12 -18 28 -21 61 -15 279 -132 419 -225 175 -117
325 -233 481 -372 l113 -100 19 23 c11 13 19 26 20 29 0 4 -44 43 -97 86 -308
251 -621 452 -853 546 -118 48 -130 51 -130 34z"/>
<path d="M743 1336 c-72 -53 -115 -103 -150 -176 -22 -45 -28 -73 -31 -153 -3
-67 -1 -102 7 -110 9 -9 10 2 5 43 -8 70 9 160 42 228 28 58 114 148 168 177
l34 19 37 -32 c44 -39 131 -84 203 -106 36 -10 71 -31 105 -62 66 -60 127 -99
193 -123 38 -15 73 -41 135 -103 79 -78 195 -158 229 -158 8 0 -10 14 -40 32
-82 47 -163 111 -215 173 -26 30 -54 55 -61 55 -44 0 -253 137 -268 175 -2 7
-22 16 -43 20 -66 12 -156 54 -215 100 -32 25 -62 45 -67 45 -5 0 -35 -20 -68
-44z"/>
<path d="M534 898 c9 -13 13 -31 9 -46 -6 -24 -6 -24 26 -8 38 20 38 24 6 36
-14 5 -25 16 -25 25 0 8 -7 15 -16 15 -14 0 -14 -2 0 -22z"/>
<path d="M577 833 c-23 -12 -26 -17 -16 -29 6 -8 17 -14 24 -14 6 0 17 -11 23
-25 6 -14 16 -25 22 -25 7 0 7 8 -1 23 -7 12 -12 34 -11 49 3 35 -7 40 -41 21z"/>
<path d="M1693 758 c-22 -11 -40 -44 -29 -55 3 -3 17 4 31 15 28 22 50 20 60
-5 6 -16 -30 -63 -48 -63 -6 0 0 11 13 25 32 34 14 56 -23 29 -22 -17 -23 -20
-10 -41 20 -31 66 -31 87 -1 23 33 19 64 -10 87 -30 23 -39 24 -71 9z"/>
<path d="M1890 710 c-34 -44 -35 -76 0 -67 14 4 54 -26 156 -119 75 -68 140
-124 143 -124 18 0 43 28 39 46 -2 17 -87 99 -235 229 -20 17 -33 38 -33 52 0
37 -34 28 -70 -17z"/>
<path d="M647 699 c40 -68 144 -154 211 -174 40 -12 23 10 -23 29 -52 21 -134
92 -165 141 -27 43 -48 47 -23 4z"/>
<path d="M1626 654 c-9 -22 17 -49 39 -40 10 3 15 15 13 28 -4 29 -42 37 -52
12z"/>
<path d="M890 519 c0 -18 4 -20 30 -14 16 4 34 4 39 0 15 -9 1 -35 -15 -28 -8
3 -14 0 -14 -6 0 -18 39 -12 49 8 12 22 7 28 -38 47 -44 19 -51 18 -51 -7z"/>
<path d="M362 85 c1 -26 7 -35 20 -35 14 0 18 8 17 38 l-2 37 -7 -35 -7 -35
-2 33 c0 17 -6 32 -11 32 -6 0 -10 -16 -8 -35z"/>
<path d="M972 108 c-16 -16 -15 -43 1 -57 16 -13 37 4 37 30 0 25 -24 41 -38
27z"/>
<path d="M127 93 c-4 -3 -7 -14 -7 -24 0 -19 26 -33 35 -19 4 6 -2 10 -12 11
-10 0 -13 3 -6 5 6 3 23 -2 37 -12 16 -10 26 -12 26 -5 0 6 -4 11 -10 11 -5 0
-10 7 -10 15 0 8 5 15 12 15 6 0 8 3 5 6 -4 4 -13 1 -21 -5 -10 -8 -16 -9 -21
-1 -7 12 -19 13 -28 3z"/>
<path d="M247 94 c-16 -16 -7 -44 14 -44 15 0 20 5 17 22 -3 22 -19 33 -31 22z"/>
<path d="M290 75 c0 -14 5 -25 11 -25 5 0 8 4 4 9 -3 5 -1 12 5 16 15 9 12 25
-5 25 -9 0 -15 -9 -15 -25z"/>
<path d="M411 78 c-1 -22 4 -28 19 -28 15 0 20 6 19 28 -2 23 -2 24 -6 5 -2
-13 -8 -23 -13 -23 -5 0 -11 10 -13 23 -4 19 -4 18 -6 -5z"/>
<path d="M570 91 c10 -7 11 -11 3 -11 -7 0 -13 -7 -13 -15 0 -8 7 -15 16 -15
20 0 15 42 -6 47 -13 4 -13 3 0 -6z"/>
<path d="M600 89 c0 -6 7 -9 15 -5 9 3 15 0 15 -10 0 -11 -6 -14 -16 -10 -8 3
-12 2 -9 -4 3 -5 25 -9 48 -7 34 2 42 6 42 22 0 28 -29 30 -44 3 -6 -13 -10
-15 -7 -6 3 9 -2 19 -10 22 -23 9 -34 7 -34 -5z"/>
<path d="M711 73 l1 -28 8 25 7 25 12 -25 11 -25 -3 25 c-1 14 -9 26 -19 28
-14 3 -18 -3 -17 -25z"/>
<path d="M783 89 c-15 -15 -5 -39 16 -39 14 0 14 2 1 10 -13 8 -12 10 3 10 10
0 17 5 15 12 -6 17 -22 20 -35 7z"/>
<path d="M831 63 c0 -21 3 -32 6 -25 2 6 11 12 20 12 21 0 13 44 -9 48 -15 3
-18 -4 -17 -35z"/>
</g>
</svg>
